<svg width="26" xmlns="http://www.w3.org/2000/svg" height="24.5" viewBox="1379 927.25 26 24.5" fill="none"><path d="M1399.942,937.474C1401.353,938.263,1401.353,940.237,1399.942,941.026L1382.173,950.972C1380.763,951.762,1379.000,950.775,1379.000,949.196L1379.000,929.304C1379.000,927.725,1380.763,926.738,1382.173,927.528L1399.942,937.474ZZM1402.000,928.750C1402.000,927.922,1402.672,927.250,1403.500,927.250L1403.500,927.250C1404.328,927.250,1405.000,927.922,1405.000,928.750L1405.000,950.250C1405.000,951.078,1404.328,951.750,1403.500,951.750L1403.500,951.750C1402.672,951.750,1402.000,951.078,1402.000,950.250L1402.000,928.750Z" style="fill: rgb(255, 255, 255); fill-opacity: 0.8;" class="fills"/></svg>