<svg width="44" xmlns="http://www.w3.org/2000/svg" height="61" viewBox="1769 1940 44 61" fill="none"><path d="M1769.000,1945.000C1769.000,1942.240,1771.240,1940.000,1774.000,1940.000L1781.368,1940.000C1784.128,1940.000,1786.368,1942.240,1786.368,1945.000L1786.368,1996.000C1786.368,1998.760,1784.128,2001.000,1781.368,2001.000L1774.000,2001.000C1771.240,2001.000,1769.000,1998.760,1769.000,1996.000L1769.000,1945.000ZM1795.632,1945.000C1795.632,1942.240,1797.872,1940.000,1800.632,1940.000L1808.000,1940.000C1810.760,1940.000,1813.000,1942.240,1813.000,1945.000L1813.000,1996.000C1813.000,1998.760,1810.760,2001.000,1808.000,2001.000L1800.632,2001.000C1797.872,2001.000,1795.632,1998.760,1795.632,1996.000L1795.632,1945.000Z" style="fill: rgb(255, 255, 255); fill-opacity: 1;" class="fills"/></svg>