<svg width="26" xmlns="http://www.w3.org/2000/svg" height="24.5" viewBox="1048 927.25 26 24.5" fill="none"><path d="M1053.058,941.526C1051.647,940.737,1051.647,938.763,1053.058,937.974L1070.827,928.028C1072.237,927.238,1074.000,928.225,1074.000,929.804L1074.000,949.696C1074.000,951.275,1072.237,952.262,1070.827,951.472L1053.058,941.526ZZM1051.000,950.250C1051.000,951.078,1050.328,951.750,1049.500,951.750L1049.500,951.750C1048.672,951.750,1048.000,951.078,1048.000,950.250L1048.000,928.750C1048.000,927.922,1048.672,927.250,1049.500,927.250L1049.500,927.250C1050.328,927.250,1051.000,927.922,1051.000,928.750L1051.000,950.250Z" style="fill: rgb(255, 255, 255); fill-opacity: 0.8;" class="fills"/></svg>